<svg xmlns="http://www.w3.org/2000/svg" viewBox="0 0 79.7 81"><path style="fill:rgba(241, 196, 15,1);" d="M54.6 58c-0.7 0.3-0.9 0.5-1.3 0.7 -0.3 0.2-0.9 0.7-1.2 0.9 -0.9 0.4-3.9-0.4-4.9-0.5 -0.8-0.2-1.4-0.9-1.8-1.6 -0.4-0.8-0.7-1.6-1-2.3 -0.2-0.4-1.4-3.7-1.5-3.7 -4.5 0.8-6.9 1-6.9 1 -0.2 0.6 0.7 6.8 0.8 7.3 0-0.1 4.1-0.5 4.5-0.5 0.8-0.1 1.6-0.2 2.4-0.2 0.5 0 1.3-0.3 1.7 0.1 0.4 0.3-0.2 0.9-0.2 1.3 -0.1 0.5 0.3 0.6 0.2 1.1 -0.1 0.7-0.5 1-1.1 1.2 -0.7 0.2-1.2 0.7-1.7 1.2 -0.5 0.5-1.4 1-2.1 1 -0.9 0-1.6-0.2-2.4-0.7 -0.4-0.2-4-2-4.3-2.5 -0.2-0.3-0.2-1-0.3-1.4 -0.1-0.6-0.4-4.4-0.6-5.7 -0.3-2.4 0.2-2.2-1.1-2.3 -0.8-0.1-1.2-0.1-1.9-0.1 -2 0-9.5-1.3-11.4-1.8 -1.2-0.3-2.4-0.6-3.5-1.2 -0.6-0.3-3.2-1.3-3.9-1.5 -0.7-0.1-1.4 0.2-2.1 0.4 -1 0.3-2 0.4-3.1 0.6 -1.7 0.3-3.6 0.3-5.3 0.3C0.4 49 0 49 0 48.8c0-0.2 0.1-0.4 0.2-0.5 0.5-0.8 1.4-1.9 1.7-2.3C2.7 44.9 6.1 42.5 6.8 42.3c0.9-0.3 0.6-0.4 1.1-1.1 0.8-1.1 2.1-2.1 3.4-2.5 -1.4 0-2.7-0.2-4-0.3 -0.5 0-1.1-0.1-1.6-0.1 -0.8-0.1-1.5-0.2-2.3-0.4 -0.3-0.1-0.5-0.1-0.6-0.4 0-0.2 0-0.4 0.1-0.5 0.4-0.6 1.5-0.7 2.1-0.8 1.4-0.2 3-0.6 4.4-1.1 0.8-0.3 3.8-1.1 4.5-1.3 0.7-0.2 8.8-3.5 10.7-4.5 1-0.5 5.8-2.3 7-2.9 1-0.5 5.7-1.9 6.9-2.3 1.4-0.5 2.9-0.7 4.4-0.7 1.8-0.1 3.6 0.1 5.3 0.4 1 0.2 3.1 1.4 4 0.6 0.3-0.2 0.5-0.5 0.6-0.8 0.3-0.9 1.3-4.6 1.5-5.6 0.4-2.3 0.7-4.5 1.3-6.8 0.6-2 2.9-7.3 3.4-8 0.5-0.6 1-1.4 1.7-1.9 1.8-1.7 4.5-1.6 6.7-0.7 0.4 0.2 0.8 0.3 1.2 0.5 0.8 0.4 1.5 1.1 2.1 1.8 0.3 0.4 0.7 0.7 1 1.1 0.3 0.3 2.3 2.1 3.2 2.5 1.1 0.5 2.2 1 3.4 1.3 0.8 0.2 2 0.6 1.2 1.6 -0.8 1-2.5 0.6-3.6 0.6 -2.3 0-4.6-0.4-6.9 0.1 -2 0.5-3.7 2-4.9 3.7 -1.3 1.7-1.4 3.6-0.9 5.6 0.5 2.1 1.2 4.3 1.5 6.4 0.4 2.7 0.3 5.4-0.6 8.1 -0.8 2.4-1.9 4.8-3.5 6.8 -0.5 0.6-1.1 1.3-1.6 1.8 -0.9 0.9-4.8 3.7-5.7 4.3 -0.7 0.5-4.9 2.6-5.4 2.8 -0.9 0.3-1.3 0.5-2.1 0.8 -0.1 0 0.6 1.8 0.8 2.3 0.2 0.4 1 2.1 1 2.1 0.2 0.1 7.2-0.7 7.6-0.7 0.3 0 0.7-0.1 1 0 0.4 0.1 0.4 1 0.2 1.2 -0.1 0.2-0.4 0.5-0.4 0.7 0 0.2 0.1 0.3 0.1 0.5 0 0.1 0 0.4 0 0.5 -0.1 0.2-0.3 0.5-0.5 0.6C55.3 57.7 55 57.8 54.6 58z"/></svg>
