<svg xmlns="http://www.w3.org/2000/svg" xmlns:xlink="http://www.w3.org/1999/xlink" version="1.1" x="0px" y="0px" viewBox="0 0 512 640" enable-background="new 0 0 512 512" xml:space="preserve"><g><g><g><path d="M364.283,259.204c9.702,18.621,40.98,25.124,59.072,10.03c6.377-5.321,8.642-13.495,12.264-22.289     c1.71-4.174,3.569-33.382,2.785-37.827c-3.085-17.371-19.062-31.605-44.026-30.648c-19.266,0.736-33.479,13.528-36.783,28.977     c-0.915,4.29-0.082,32.73,2.789,40.054C361.948,251.505,362.762,256.28,364.283,259.204z"/></g><path d="M421.331,284.434c-13.641,9.221-35.645,7.417-49.04,0c-11.086,0.531-20.067,6.241-27.152,14.913    c12.288,17.388,20.851,41.469,25.544,65.815c8.144,1.001,16.435,1.529,24.85,1.529c24.789,0,48.529-4.478,70.468-12.651    C462.017,321.261,446.84,285.059,421.331,284.434z"/></g><g><path d="M296.126,275.341c-21.228,14.35-55.47,11.543-76.317,0c-44.493,2.133-67.307,57.729-73.448,108.335    c34.129,12.714,71.058,19.674,109.618,19.674c38.576,0,75.52-6.968,109.661-19.688    C359.441,332.651,335.823,276.313,296.126,275.341z"/><path d="M205.63,234.361c15.098,28.978,63.773,39.098,91.93,15.609c9.922-8.281,13.446-21,19.082-34.687    c2.663-6.495,5.556-51.949,4.335-58.866c-4.801-27.033-29.665-49.185-68.513-47.696c-29.98,1.146-52.099,21.054-57.241,45.094    c-1.425,6.676-0.128,50.934,4.339,62.333C201.997,222.379,203.262,229.81,205.63,234.361z"/></g><g><g><path d="M151.617,247.5c2.871-7.324,3.704-35.765,2.789-40.054c-3.304-15.448-17.518-28.24-36.783-28.977     c-24.963-0.957-40.941,13.277-44.026,30.648c-0.785,4.445,1.075,33.653,2.786,37.827c3.622,8.794,5.887,16.968,12.263,22.289     c18.093,15.094,49.371,8.591,59.072-10.03C149.239,256.28,150.051,251.505,151.617,247.5z"/></g><path d="M90.668,284.434c13.641,9.221,35.645,7.417,49.041,0c11.086,0.531,20.067,6.241,27.152,14.913    c-12.288,17.388-20.85,41.469-25.543,65.815c-8.144,1.001-16.435,1.529-24.851,1.529c-24.789,0-48.529-4.478-70.467-12.651    C49.983,321.261,65.16,285.059,90.668,284.434z"/></g></g><text x="0" y="527" fill="#000000" font-size="5px" font-weight="bold" font-family="'Helvetica Neue', Helvetica, Arial-Unicode, Arial, Sans-serif"></text><text x="0" y="532" fill="#000000" font-size="5px" font-weight="bold" font-family="'Helvetica Neue', Helvetica, Arial-Unicode, Arial, Sans-serif"></text></svg>
