<svg xmlns="http://www.w3.org/2000/svg" xmlns:xlink="http://www.w3.org/1999/xlink" xml:space="preserve" version="1.1" style="shape-rendering:geometricPrecision;text-rendering:geometricPrecision;image-rendering:optimizeQuality;" viewBox="0 0 100000 125000" x="0px" y="0px" fill-rule="evenodd" clip-rule="evenodd"><defs><style type="text/css">

    .fil0 {fill:rgba(241, 196, 15,1);}

  </style></defs><g><path class="fil0" d="M36757 15350c-4357,4886 -6227,12938 -5052,19327 309,1677 808,3258 1450,4835 301,738 622,1456 966,2176 334,697 732,1404 1031,2108 796,1877 2500,3156 1058,3517 -787,198 -2115,64 -2976,91 -976,31 -4557,390 -5474,559 -2046,374 -2941,1026 -4600,-517 -581,-541 -1100,-980 -1716,-1476 -2576,-2075 -5767,-3860 -8997,-1902 -2667,1617 -4287,4488 -5156,7401 -1055,3536 -1009,7719 -673,11366 318,3445 1166,6839 2556,10010 295,674 1743,3308 2165,3944 424,640 2246,2615 2835,3197 2239,2218 4426,3837 7149,5413 2818,1630 5850,2660 8921,3686 3185,1065 6449,1893 9761,2469 1335,233 3856,547 5243,685 1763,176 3498,319 5268,432 1720,110 3398,161 5120,141 3282,-39 6646,-130 9882,-667 1612,-268 3327,-452 4900,-751 1074,-204 3840,-873 4893,-1185 4205,-1245 4890,-1650 8656,-3836 2207,-1280 5158,-3837 6809,-5797 906,-1074 1898,-2511 2492,-3781 1298,-2776 1919,-6986 1632,-10021 -305,-3234 -1680,-6357 -3735,-8855 -874,-1064 -2047,-2309 -3125,-3158 -769,-607 -2921,-2015 -3791,-2531 -1269,-754 -2812,-1580 -4199,-2069 -2297,-810 -2473,-1108 -181,-2220 689,-334 1410,-717 2109,-1016 795,-340 1388,-529 2134,-1016 2658,-1732 4461,-4075 5499,-7077 530,-1531 638,-3801 216,-5362 -582,-2159 -2865,-1638 -4554,-1676 -2026,-46 -2024,-1567 -3083,-2890 -1261,-1580 -2446,-1042 -2663,-3532 -90,-1033 -104,-1622 -559,-2583 -340,-722 -622,-1429 -1000,-2138 -1468,-2752 -3253,-4964 -5628,-6978 -10602,-8991 -26211,-8836 -35586,1678z"/></g><text x="0" y="100015" fill="#000000" font-size="5px" font-weight="bold" font-family="'Helvetica Neue', Helvetica, Arial-Unicode, Arial, Sans-serif">Created by Martina Krasnayová</text><text x="0" y="100020" fill="#000000" font-size="5px" font-weight="bold" font-family="'Helvetica Neue', Helvetica, Arial-Unicode, Arial, Sans-serif">from the Noun Project</text></svg>
