<svg xmlns="http://www.w3.org/2000/svg" xmlns:xlink="http://www.w3.org/1999/xlink" version="1.1" x="0px" y="0px" viewBox="0 0 100 125" enable-background="new 0 0 100 100" xml:space="preserve"><defs><style>

.fil1 {fill:rgba(52,65,70,1);}

</style></defs><path style="fill:rgba(52,65,70,1)" d="M18.308,59.188c0.411,0.403,0.946,0.603,1.48,0.603c0.546,0,1.094-0.211,1.507-0.633  c0.817-0.833,0.804-2.17-0.027-2.986l-7.463-7.322c-0.833-0.815-2.169-0.804-2.987,0.029c-0.816,0.832-0.804,2.17,0.028,2.985  L18.308,59.188z"/><path style="fill:rgba(52,65,70,1)" d="M20.068,64.296c0-1.166-0.945-2.111-2.112-2.111H8.945c-1.167,0-2.112,0.945-2.112,2.111  c0,1.167,0.945,2.112,2.112,2.112h9.011C19.123,66.408,20.068,65.463,20.068,64.296z"/><path style="fill:rgba(52,65,70,1)" d="M18.629,69.249l-8.308,6.477c-0.92,0.717-1.083,2.044-0.367,2.965c0.417,0.533,1.039,0.813,1.668,0.813  c0.454,0,0.911-0.145,1.296-0.446l8.308-6.475c0.919-0.717,1.083-2.044,0.367-2.965C20.875,68.695,19.549,68.531,18.629,69.249z"/><path style="fill:rgba(52,65,70,1)" d="M82.315,66.283c0.291,0,0.589-0.062,0.871-0.189l6.195-2.816c1.06-0.481,1.531-1.734,1.049-2.797  c-0.482-1.061-1.734-1.531-2.796-1.048l-6.194,2.815c-1.062,0.483-1.532,1.735-1.05,2.798  C80.744,65.823,81.511,66.283,82.315,66.283z"/><path style="fill:rgba(52,65,70,1)" d="M90.282,74.459l-7.181-4.224c-1.006-0.592-2.299-0.256-2.891,0.749c-0.594,1.005-0.256,2.3,0.749,2.892  l7.182,4.224c0.337,0.197,0.706,0.291,1.068,0.291c0.725,0,1.43-0.373,1.823-1.04C91.624,76.344,91.289,75.05,90.282,74.459z"/><path style="fill:rgba(52,65,70,1)" d="M52.002,14.75c-14.368,0-25.104,20.255-25.104,38.365c0,4.584,0.666,8.835,1.977,12.636  c0.237,0.688,0.785,1.221,1.478,1.44l10.707,3.39c0.473,0.147,0.98,0.142,1.449-0.021l1.187-0.415v4.948l-2.602-0.99  c-0.948-0.358-2.009,0.114-2.37,1.063c-0.361,0.947,0.115,2.008,1.063,2.369l0.944,0.36l-1.777,0.658  c-0.951,0.352-1.437,1.408-1.084,2.359c0.274,0.741,0.976,1.199,1.723,1.199c0.211,0,0.427-0.038,0.637-0.115l5.524-2.047  l2.38,0.794c0.193,0.064,0.389,0.095,0.581,0.095c0.77,0,1.485-0.486,1.742-1.256c0.321-0.963-0.199-2.003-1.161-2.323l-1.927-0.644  v-7.754l1.793-0.625l8.092,1.963c0.285,0.068,0.58,0.063,0.87,0.021v4.872l-2.603-0.99c-0.945-0.36-2.008,0.113-2.369,1.063  c-0.361,0.947,0.114,2.008,1.063,2.369l0.943,0.36l-1.776,0.658c-0.95,0.352-1.437,1.408-1.083,2.359  c0.273,0.741,0.975,1.199,1.721,1.199c0.213,0,0.428-0.038,0.639-0.115l5.523-2.047l2.38,0.794c0.193,0.064,0.389,0.095,0.581,0.095  c0.769,0,1.486-0.486,1.742-1.256c0.321-0.963-0.199-2.003-1.161-2.323l-1.927-0.644v-7.396l3.131-0.888l4.859,3.027  c0.368,0.229,0.789,0.347,1.214,0.347c0.192,0,0.384-0.024,0.573-0.072c0.608-0.157,1.126-0.557,1.432-1.104  c2.722-4.875,4.103-10.733,4.103-17.413C77.106,35.005,66.37,14.75,52.002,14.75z M70.066,66.124l-3.574-2.228  c-0.369-0.229-0.789-0.347-1.215-0.347c-0.21,0-0.42,0.028-0.626,0.087l-6.904,1.958l-8.163-1.98  c-0.43-0.104-0.881-0.082-1.298,0.063l-6.57,2.295l-8.851-2.801c-0.914-3.044-1.377-6.421-1.377-10.057  c0-17.361,9.97-33.774,20.514-33.774s20.513,16.414,20.513,33.774C72.515,58.021,71.692,62.385,70.066,66.124z"/>
<path style="fill:rgba(241, 196, 15,1)" d="M43.048,27.852c-4.664,4.972-7.895,13.293-8.433,21.718c-0.081,1.266,0.88,2.356,2.145,2.438  c0.05,0.003,0.099,0.004,0.148,0.004c1.201,0,2.211-0.934,2.289-2.149c0.465-7.296,3.291-14.703,7.199-18.869  c0.868-0.924,0.821-2.377-0.104-3.245C45.369,26.881,43.916,26.927,43.048,27.852z"/><text style="fill:rgba(52,65,70,1)" x="0" y="115" fill="#000000" font-size="5px" font-weight="bold" font-family="'Helvetica Neue', Helvetica, Arial-Unicode, Arial, Sans-serif" class="quackerTitle">"QUACKER"</text><text style="fill:rgba(52,65,70,1)" x="0" y="120" fill="#000000" font-size="5px" font-weight="bold" font-family="'Helvetica Neue', Helvetica, Arial-Unicode, Arial, Sans-serif">Microblogging app with Geolocation</text></svg>
